<svg xmlns="http://www.w3.org/2000/svg" viewBox="0 0 1800 1000">
  <!-- Saffron stripe -->
  <rect width="1800" height="333" fill="#FF9933" opacity="0.95" />
  <!-- White stripe -->
  <rect y="333" width="1800" height="334" fill="#ffffff" opacity="0.95" />
  <!-- Green stripe -->
  <rect y="667" width="1800" height="333" fill="#138808" opacity="0.95" />
  <!-- Ashoka chakra (simplified) -->
  <g transform="translate(900,500)" fill="#0B3C65" stroke="#0B3C65" stroke-width="2">
    <circle r="80" fill="none" stroke="#0B3C65" stroke-width="8" />
    <!-- 24 spokes -->
    <g stroke="#0B3C65" stroke-width="3">
      <g>
        <path d="M0,-80 L0,-125" />
        <path d="M0,80 L0,125" transform="rotate(15)" />
        <path d="M0,-80 L0,-125" transform="rotate(30)" />
        <path d="M0,-80 L0,-125" transform="rotate(45)" />
        <path d="M0,-80 L0,-125" transform="rotate(60)" />
        <path d="M0,-80 L0,-125" transform="rotate(75)" />
        <path d="M0,-80 L0,-125" transform="rotate(90)" />
        <path d="M0,-80 L0,-125" transform="rotate(105)" />
        <path d="M0,-80 L0,-125" transform="rotate(120)" />
        <path d="M0,-80 L0,-125" transform="rotate(135)" />
        <path d="M0,-80 L0,-125" transform="rotate(150)" />
        <path d="M0,-80 L0,-125" transform="rotate(165)" />
        <path d="M0,-80 L0,-125" transform="rotate(180)" />
        <path d="M0,-80 L0,-125" transform="rotate(195)" />
        <path d="M0,-80 L0,-125" transform="rotate(210)" />
        <path d="M0,-80 L0,-125" transform="rotate(225)" />
        <path d="M0,-80 L0,-125" transform="rotate(240)" />
        <path d="M0,-80 L0,-125" transform="rotate(255)" />
        <path d="M0,-80 L0,-125" transform="rotate(270)" />
        <path d="M0,-80 L0,-125" transform="rotate(285)" />
        <path d="M0,-80 L0,-125" transform="rotate(300)" />
        <path d="M0,-80 L0,-125" transform="rotate(315)" />
        <path d="M0,-80 L0,-125" transform="rotate(330)" />
        <path d="M0,-80 L0,-125" transform="rotate(345)" />
      </g>
    </g>
  </g>
</svg>